<svg width="23" height="23" viewBox="0 0 23 23" fill="none" xmlns="http://www.w3.org/2000/svg">
<path fill-rule="evenodd" clip-rule="evenodd" d="M17.3663 13.4994V8.49939C17.3058 5.18408 14.5997 2.52795 11.282 2.52795C7.9644 2.52795 5.25828 5.18408 5.19782 8.49939L5.19795 13.4994C5.1988 14.2024 5.01157 14.8929 4.65567 15.4994H17.9095C17.5533 14.8931 17.3657 14.2026 17.3663 13.4994ZM21.4223 17.4994H1.14176C0.784271 17.4994 0.45402 17.3088 0.275338 16.9994C0.0965343 16.6899 0.0965343 16.3088 0.275338 15.9994C0.45402 15.6899 0.784271 15.4994 1.14176 15.4994C2.25415 15.5066 3.16197 14.6113 3.16967 13.4994L3.16979 8.49939C3.24038 4.07178 6.85164 0.519531 11.282 0.519531C15.7125 0.519531 19.3237 4.07178 19.3942 8.49939V13.4994C19.3976 14.0334 19.6132 14.5442 19.9936 14.9193C20.3739 15.2944 20.8879 15.5032 21.4222 15.4994C21.7797 15.4994 22.1101 15.6899 22.2888 15.9994C22.4676 16.3087 22.4676 16.6899 22.2889 16.9994C22.1102 17.3087 21.7798 17.4994 21.4223 17.4994ZM13.9134 20.9994C13.3611 21.9263 12.3615 22.4943 11.282 22.4943C10.2026 22.4943 9.20296 21.9263 8.65067 20.9994C8.47089 20.6884 8.47199 20.3048 8.65336 19.9946C8.83473 19.6846 9.16864 19.4955 9.52808 19.4994H13.0369C13.3961 19.4958 13.7296 19.6849 13.9109 19.995C14.092 20.3052 14.093 20.6885 13.9133 20.9994H13.9134Z" fill="#809FB8"/>
</svg>
