<svg width="26" height="25" viewBox="0 0 26 25" fill="none" xmlns="http://www.w3.org/2000/svg">
<path fill-rule="evenodd" clip-rule="evenodd" d="M5.84008 24.0534C2.86979 24.087 0.398894 21.7786 0.232181 18.8144L0.226196 18.5644V5.49641C0.249768 2.52949 2.60927 0.108528 5.57615 0.00739249L5.83312 0.000373442H11.6842C14.6544 -0.0337452 17.1257 2.27412 17.2931 5.23829L17.2981 6.59235C17.2835 7.21314 16.7976 7.72028 16.1776 7.7616C15.5577 7.80292 15.0087 7.36469 14.9118 6.75129L14.9018 6.61134V5.49635C14.8852 3.81135 13.5564 2.43183 11.8723 2.35133H11.6722H5.83715C4.15085 2.33607 2.74386 3.63502 2.62552 5.31635L2.62051 5.51032V18.5613C2.63761 20.2457 3.96581 21.6245 5.64906 21.7054L5.84912 21.7113H11.6962C13.3767 21.7281 14.7798 20.434 14.8978 18.7583L14.9028 17.4663C14.915 16.8434 15.4019 16.3334 16.0239 16.2922C16.6459 16.2511 17.1959 16.6924 17.29 17.3082L17.2991 17.4473V18.5743C17.273 21.5318 14.9234 23.9454 11.9662 24.0523L11.7021 24.0573L5.84008 24.0534ZM19.8843 16.2764C19.4676 15.8679 19.4191 15.2137 19.7712 14.7484L19.8713 14.6334L21.34 13.2004H9.80999C9.18271 13.2162 8.65436 12.7358 8.61064 12.1104C8.56704 11.4849 9.02357 10.9359 9.64682 10.8644L9.78899 10.8535H21.3421L19.8884 9.43745C19.471 9.02998 19.4201 8.37653 19.7694 7.90943L19.8693 7.79444C20.2937 7.37501 20.9575 7.31904 21.4462 7.66145L21.5643 7.76142L25.0761 11.1814C25.3112 11.3998 25.4442 11.7065 25.4433 12.0274C25.4415 12.3514 25.3057 12.6602 25.0681 12.8804L21.5803 16.2805C21.1079 16.7374 20.358 16.7374 19.8854 16.2805L19.8843 16.2764Z" fill="#8FABC1"/>
</svg>
